<?xml version="1.0" encoding="UTF-8"?>
<svg id="Layer_1" data-name="Layer 1" xmlns="http://www.w3.org/2000/svg" xmlns:xlink="http://www.w3.org/1999/xlink" viewBox="0 0 1024 1024">
  <defs>
    <style>
      .cls-1 {
        fill: #00000f;
      }

      .cls-2 {
        fill: url(#linear-gradient-2);
      }

      .cls-3 {
        fill: url(#linear-gradient);
      }

      .cls-4 {
        fill: #fff;
      }
    </style>
    <linearGradient id="linear-gradient" x1="429" y1="-3.07" x2="429" y2="854.93" gradientUnits="userSpaceOnUse">
      <stop offset="0" stop-color="#e6e6e6"/>
      <stop offset="1" stop-color="#f0f0f0" stop-opacity=".7"/>
    </linearGradient>
    <linearGradient id="linear-gradient-2" x1="885.41" y1="1008.44" x2="745.28" y2="623.44" gradientUnits="userSpaceOnUse">
      <stop offset="0" stop-color="#ffaf00"/>
      <stop offset=".62" stop-color="#ffce00"/>
      <stop offset="1" stop-color="#fd0"/>
    </linearGradient>
  </defs>
  <circle class="cls-3" cx="429" cy="429" r="429"/>
  <circle class="cls-2" cx="815" cy="815" r="209"/>
  <g>
    <path d="M730.29,908.67c-17.88,0-31.62-5.01-41.22-15.03-9.6-10.02-14.4-23.8-14.4-41.35h26.57c.16,9.11,2.48,16.81,6.95,23.1,4.47,6.29,11.75,9.44,21.85,9.44s16.76-3.06,20.98-9.19c4.22-6.12,6.33-13.74,6.33-22.85v-120.96h26.32v120.96c0,17.88-4.72,31.67-14.15,41.36-9.44,9.69-22.52,14.53-39.23,14.53Z"/>
    <path d="M878.78,908.67c-12.25,0-22.97-2.23-32.16-6.71-9.19-4.47-16.39-10.84-21.6-19.13-5.21-8.28-7.91-18.13-8.07-29.56h27.81c.16,8.78,3.19,16.27,9.06,22.48,5.87,6.21,14.11,9.31,24.71,9.31,9.77,0,17.38-2.27,22.85-6.83,5.46-4.55,8.19-10.47,8.19-17.76,0-6.12-1.61-11.22-4.84-15.28-3.23-4.06-8.24-7.7-15.02-10.93-6.79-3.23-15.56-6.58-26.32-10.06-14.4-4.63-25-11.05-31.79-19.25-6.79-8.2-10.18-18.26-10.18-30.18,0-13.74,4.97-24.84,14.9-33.28s23.59-12.67,40.97-12.67,30.46,4.35,40.72,13.04c10.26,8.69,15.56,20.74,15.89,36.14h-28.06c0-4.14-1.16-8.15-3.48-12.05-2.32-3.89-5.63-7.12-9.93-9.69-4.31-2.57-9.6-3.85-15.89-3.85-7.78-.16-14.32,1.7-19.62,5.59-5.3,3.89-7.95,9.15-7.95,15.77,0,8.12,3.23,14.45,9.68,19,6.46,4.56,16.97,9.23,31.54,14.03,9.1,2.98,17.17,6.58,24.21,10.8,7.03,4.22,12.58,9.61,16.64,16.15,4.05,6.54,6.08,14.86,6.08,24.96,0,9.28-2.32,17.68-6.95,25.21-4.64,7.54-11.3,13.54-19.99,18.01-8.69,4.47-19.16,6.71-31.41,6.71Z"/>
  </g>
  <g>
    <path class="cls-1" d="M750.38,512.46c-5.02-21.83-40.94-84.41-114.51-140.03-13.52-10.24-25.49-18.74-35.72-25.5,14.68-62.97-61.79-138.87-136.33-103.14-53.49-50.41-113.16-70.89-168-70.11-145.41,2.12-257.41,153.55-136.91,298.03l.19.19c1.93,2.12,3.67,4.44,5.6,6.57,7.92,9.46,12.94,17.77,17.38,32.26l35.92,117.82h-12.74c-11.78,0-21.24,9.46-21.24,21.25h48.28l81.1,38.44c5.02-10.62.39-23.37-10.04-28.2l-21.24-10.04h61.21c0-11.78-9.46-21.25-21.24-21.25h-55.42c-9.66,0-18.34-6.37-21.05-15.64l-28.58-93.68c-7.14-24.53,9.27-40.75,24.52-42.69,13.9-1.74,21.05,7.34,27.61,29.17l25.3,83.05h-12.74c-11.78,0-21.24,9.46-21.24,21.25h48.28l81.1,38.44c5.02-10.62.39-23.37-10.04-28.2l-21.24-10.04h44.8c4.63,7.73,10.04,15.07,16.8,21.63,42.61,42.62,111.97,41.9,153.68-2.15,38.5-40.66,38.5-106.66,0-147.32-41.71-44.05-111.07-44.77-153.68-2.15-29.35,29.36-38.23,71.66-26.26,108.74h-50.79c-9.66,0-18.34-6.37-21.05-15.64l-42.1-138.29,7.14-3.86c99.83-41.91,206.62,32.84,280.77-39.02l.39-.39c9.27-8.31,18.34-17,45.57,0,29.35,18.35,93.85,66.25,123.01,147.95,0,0,17.77-6.37,12.94-28.01l.58.58Z"/>
    <path class="cls-4" d="M502.29,332.13c0-11.68,9.47-21.15,21.15-21.15s21.13,9.45,21.15,21.11c2.89-4.84,4.56-10.5,4.56-16.56,0-17.86-14.48-32.34-32.34-32.34s-32.34,14.48-32.34,32.34c0,14.84,10,27.34,23.63,31.14-3.6-3.79-5.82-8.9-5.82-14.55Z"/>
  </g>
</svg>