<?xml version="1.0" encoding="utf-8"?>
<!-- Generator: Adobe Illustrator 25.1.0, SVG Export Plug-In . SVG Version: 6.00 Build 0)  -->
<svg version="1.1"
	 id="Layer_1" xmlns:cc="http://creativecommons.org/ns#" xmlns:dc="http://purl.org/dc/elements/1.1/" xmlns:rdf="http://www.w3.org/1999/02/22-rdf-syntax-ns#" xmlns:svg="http://www.w3.org/2000/svg"
	 xmlns="http://www.w3.org/2000/svg" xmlns:xlink="http://www.w3.org/1999/xlink" x="0px" y="0px" viewBox="0 0 3071.4 773.7"
	 style="enable-background:new 0 0 3071.4 773.7;" xml:space="preserve">
<style type="text/css">
	.st0{fill:#FFFFFF;}
</style>
<g>
	<path class="st0" d="M673.7,477.4c-19.5-62-85.5-96.4-147.5-76.9S429.8,486,449.3,548c0.1,0.3,0.2,0.6,0.3,0.8h-55.8
		c-10.6,0-20.1-6.9-23.1-17.1L324.5,380l7.9-4.2c109.5-46,226.7,36.1,308.3-42.7c0.2-0.2,0.4-0.4,0.5-0.5
		c10.1-9.2,20.2-18.5,50.1,0.1c32.1,20.1,103,72.7,135.1,162.5c0,0,19.5-6.9,14.1-30.8s-44.9-92.7-125.7-153.7
		c-14.8-11.2-28.1-20.5-39.2-28c16.1-69-67.7-152.3-149.5-113.1c-58.7-55.2-124.2-77.8-184.4-76.9c-159.5,2.2-282.6,168.4-150.2,327
		c0.1,0.1,0.1,0.1,0.3,0.3c2,2.4,4.1,4.8,6.2,7.3c8.6,10.3,14.3,19.4,19.2,35.5l39.4,129.4h-13.9c-12.9,0-23.3,10.4-23.3,23.3h53
		l89,42.1c5.5-11.7,0.5-25.5-11.1-31l-23.4-11H394c0-12.9-10.4-23.3-23.3-23.3h-60.8c-10.6,0-20.1-6.9-23.1-17.1l-31.3-102.7
		c-7.8-27,10.1-44.6,26.9-46.7c15.3-1.9,23.1,8,30.3,32l27.8,91.1h-13.9c-12.9,0-23.3,10.4-23.3,23.3h53l89,42.1
		c5.5-11.7,0.5-25.5-11.1-31l-23.4-11h49.3c27.1,46.3,83.5,69.5,136.8,52.7C658.8,605.4,693.2,539.4,673.7,477.4z M584.2,212.9
		c19.6,0,35.3,15.8,35.3,35.3c0,6.2-1.7,12.1-4.5,17.2c-0.3-12.2-10.3-22.1-22.6-22.1c-12.5,0-22.6,10.1-22.6,22.6
		c0,6.8,3,12.9,7.7,17c-16.4-3.1-28.7-17.4-28.7-34.7C548.8,228.8,564.6,212.9,584.2,212.9z"/>
	<g>
		<polygon class="st0" points="1368.1,171.6 1236.5,171.6 1065.4,365 1065.4,171.6 951.7,171.6 951.7,618.6 1065.4,618.6 
			1065.4,508.7 1124.8,442.9 1242.9,618.6 1378.9,618.6 1202,356.7 		"/>
		<rect x="1428.7" y="171.6" class="st0" width="113.7" height="447"/>
		<polygon class="st0" points="2079.4,500.4 1991.9,171.6 1880.8,171.6 1795.3,500.4 1707.8,171.6 1586.5,171.6 1732.7,618.6 
			1850.2,618.6 1934.5,309.5 2017.5,618.6 2134.3,618.6 2281.8,171.6 2165.6,171.6 		"/>
		<rect x="2322.1" y="171.6" class="st0" width="113.7" height="447"/>
		<polygon class="st0" points="2784.4,384.8 2931.9,171.6 2798.4,171.6 2712.2,301.8 2626,171.6 2493.8,171.6 2643.3,389.9 
			2483.6,618.6 2615.8,618.6 2712.2,476.2 2808.7,618.6 2944.7,618.6 		"/>
	</g>
</g>
</svg>
