<?xml version="1.0" encoding="UTF-8" standalone="no"?>
<svg
   version="1.1"
   viewBox="0 0 2200 442"
   xmlns="http://www.w3.org/2000/svg"
   xmlns:svg="http://www.w3.org/2000/svg">
<defs>
   <style>
     path {
        fill: #000000;
      }
      @media (prefers-color-scheme: dark) {
        path {
          fill: #FFFFFF;
        }
      }
      @media (prefers-color-scheme: light) {
        path {
          fill: #000000;
        }
      }
   </style>
</defs>
<g
   transform="matrix(0.78311429,0,0,0.78240365,-106.03664,-72.508642)"><path
     d="M 673.7,477.4 C 654.2,415.4 588.2,381 526.2,400.5 464.2,420 429.8,486 449.3,548 c 0.1,0.3 0.2,0.6 0.3,0.8 h -55.8 c -10.6,0 -20.1,-6.9 -23.1,-17.1 L 324.5,380 l 7.9,-4.2 c 109.5,-46 226.7,36.1 308.3,-42.7 0.2,-0.2 0.4,-0.4 0.5,-0.5 10.1,-9.2 20.2,-18.5 50.1,0.1 32.1,20.1 103,72.7 135.1,162.5 0,0 19.5,-6.9 14.1,-30.8 C 835.1,440.5 795.6,371.7 714.8,310.7 700,299.5 686.7,290.2 675.6,282.7 691.7,213.7 607.9,130.4 526.1,169.6 467.4,114.4 401.9,91.8 341.7,92.7 182.2,94.9 59.1,261.1 191.5,419.7 c 0.1,0.1 0.1,0.1 0.3,0.3 2,2.4 4.1,4.8 6.2,7.3 8.6,10.3 14.3,19.4 19.2,35.5 l 39.4,129.4 h -13.9 c -12.9,0 -23.3,10.4 -23.3,23.3 h 53 l 89,42.1 c 5.5,-11.7 0.5,-25.5 -11.1,-31 l -23.4,-11 H 394 c 0,-12.9 -10.4,-23.3 -23.3,-23.3 h -60.8 c -10.6,0 -20.1,-6.9 -23.1,-17.1 L 255.5,472.5 c -7.8,-27 10.1,-44.6 26.9,-46.7 15.3,-1.9 23.1,8 30.3,32 l 27.8,91.1 h -13.9 c -12.9,0 -23.3,10.4 -23.3,23.3 h 53 l 89,42.1 c 5.5,-11.7 0.5,-25.5 -11.1,-31 l -23.4,-11 h 49.3 c 27.1,46.3 83.5,69.5 136.8,52.7 61.9,-19.6 96.3,-85.6 76.8,-147.6 z M 584.2,212.9 c 19.6,0 35.3,15.8 35.3,35.3 0,6.2 -1.7,12.1 -4.5,17.2 -0.3,-12.2 -10.3,-22.1 -22.6,-22.1 -12.5,0 -22.6,10.1 -22.6,22.6 0,6.8 3,12.9 7.7,17 -16.4,-3.1 -28.7,-17.4 -28.7,-34.7 0,-19.4 15.8,-35.3 35.4,-35.3 z"
     id="path1" /><g
     id="g3">
	<polygon
   points="1378.9,618.6 1202,356.7 1368.1,171.6 1236.5,171.6 1065.4,365 1065.4,171.6 951.7,171.6 951.7,618.6 1065.4,618.6 1065.4,508.7 1124.8,442.9 1242.9,618.6 "
   id="polygon1" />
	<rect
   x="1428.7"
   y="171.60001"
   width="113.7"
   height="447"
   id="rect1" />
	<polygon
   points="2134.3,618.6 2281.8,171.6 2165.6,171.6 2079.4,500.4 1991.9,171.6 1880.8,171.6 1795.3,500.4 1707.8,171.6 1586.5,171.6 1732.7,618.6 1850.2,618.6 1934.5,309.5 2017.5,618.6 "
   id="polygon2" />
	<rect
   x="2322.1001"
   y="171.60001"
   width="113.7"
   height="447"
   id="rect2" />
	<polygon
   points="2808.7,618.6 2944.7,618.6 2784.4,384.8 2931.9,171.6 2798.4,171.6 2712.2,301.8 2626,171.6 2493.8,171.6 2643.3,389.9 2483.6,618.6 2615.8,618.6 2712.2,476.2 "
   id="polygon3" />
</g></g>
</svg>
