<?xml version="1.0" encoding="UTF-8"?>
<svg version="1.1" viewBox="0 0 400 400" xmlns="http://www.w3.org/2000/svg">
 <defs>
    <style>
      path {
        fill: #000000;
      }
      @media (prefers-color-scheme: dark) {
        path {
          fill: #FFFFFF;
        }
      }
      @media (prefers-color-scheme: light) {
        path {
          fill: #000000;
        }
      }
    </style>
 </defs>
 <g>
   <path d="m381.29 260.3c-2.6281-13.2-22.656-51.3-63.075-85.1-7.5219-6.3-14.047-11.4-19.575-15.5 7.975-38.3-33.984-84.3-75.128-62.7-29.544-30.7-62.35-43-92.619-42.6-80.113 1.2-141.92 93.3-75.309 181.2 1.0875 1.4 2.175 2.8 3.1719 4.1 4.2594 5.7 7.1594 10.8 9.6063 19.6l19.756 71.7h-6.9781c-6.4344 0-11.781 5.7-11.781 13h26.553l44.678 23.4c2.8094-6.5 0-14.1-5.5281-17.1l-11.781-6.1h33.622c0-7.1-5.1656-13-11.781-13h-30.631c-5.3469 0-10.15-3.9-11.6-9.4l-15.678-57c-3.8969-14.9 4.9844-24.8 13.503-25.9 7.6125-1 11.6 4.5 15.134 17.7l13.866 50.5h-6.9781c-6.4344 0-11.781 5.7-11.781 13h26.553l44.678 23.4c2.8094-6.5 0-14.1-5.5281-17.1l-11.781-6.1h24.741c2.5375 4.7 5.5281 9 9.2438 13.2 22.928 25.3 60.538 25.3 83.466 0 22.928-25.3 22.928-66.8 0-92.1-22.928-25.3-60.538-25.3-83.466 0-22.928 25.3-21.025 43.6-14.409 66h-27.913c-5.3469 0-10.15-3.9-11.6-9.4l-23.109-84.1 3.8969-2.4c55.009-25.5 113.83 20 154.7-23.8h0.18125c4.9844-5.3 10.15-10.6 25.103 0 16.222 11.2 51.656 40.3 67.878 90 0 0 9.7875-3.9 7.1594-17.1l0.18125-0.2zm-113.28-110.2c0-6.9-5.1656-12.2-11.419-12.2s-11.419 5.5-11.419 12.6 1.6313 7.1 3.8969 9.4c-8.1563-1.8-14.409-9.6-14.409-19.3s7.975-19.6 17.763-19.6c9.7875 0 17.763 8.8 17.763 19.6s-0.90625 6.7-2.3562 9.4z" />
  </g>
</svg>
