<?xml version="1.0" encoding="UTF-8" standalone="no"?>
<svg
   version="1.1"
   viewBox="0 0 2200 2200"
   xmlns="http://www.w3.org/2000/svg"
   xmlns:svg="http://www.w3.org/2000/svg">
 <defs>
  <style>
    path {
      fill: #000000;
    }
  </style>
</defs>
<path
   d="m 2039.9943,1338.1712 c -14.5287,-63.7128 -119.9048,-247.3247 -335.3832,-410.28251 -39.3848,-29.93098 -74.9186,-54.78598 -104.5009,-74.56494 C 1643.1708,669.01165 1419.2904,446.71693 1200.8363,551.38798 1043.9974,403.83331 869.12901,343.6212 708.26416,346.07169 282.38362,352.02288 -46.172795,795.73713 307.23979,1219.1473 c 0.17504,0.175 0.35007,0.35 0.70016,0.7001 5.42635,6.4763 11.02774,12.9526 16.62913,19.4289 22.93068,27.4806 38.15946,51.8105 51.11267,94.6941 l 105.37609,345.3444 h -37.28423 c -34.3085,0 -62.31542,27.8306 -62.31542,62.3125 H 522.89323 L 760.60213,1854 c 14.70364,-31.1563 1.40035,-68.2638 -29.58234,-82.7917 l -62.31544,-29.4059 h 179.24442 c 0,-34.3069 -27.8319,-62.3126 -62.31544,-62.3126 H 623.19308 c -28.35704,0 -53.56328,-18.5537 -61.79032,-45.6841 l -83.49569,-274.2801 c -20.83016,-72.1146 26.95668,-119.199 71.94283,-124.8001 40.96016,-5.0762 61.61527,21.3542 80.87004,85.4171 l 74.21838,243.2989 h -37.28423 c -34.3085,0 -62.31545,27.8306 -62.31545,62.3126 h 141.43505 l 237.70891,112.3725 c 14.70363,-31.1562 1.40035,-68.2637 -29.58233,-82.7916 l -62.31545,-29.4059 h 131.45758 c 13.3033,22.5796 29.5824,43.9338 49.0122,63.1877 122.5303,122.5246 321.5547,122.5246 444.085,0 122.5304,-122.5246 122.5304,-321.5397 0,-444.0643 -122.5303,-122.5246 -321.5547,-122.5246 -444.085,0 -86.1214,86.1173 -111.85279,210.0422 -76.8441,318.5641 H 847.42363 c -28.35702,0 -53.56325,-18.5538 -61.7903,-45.6843 L 662.40279,1112.9009 683.408,1101.6986 c 292.49746,-122.69959 605.3,96.4444 823.054,-114.12293 0.525,-0.52506 1.0502,-1.0502 1.4003,-1.4002 26.9567,-24.505 53.9134,-49.53498 133.5581,0.35 85.7712,53.73583 274.9932,193.93903 360.7644,433.73723 0.1752,0 52.163,-18.5537 37.8095,-82.0915 z M 1438.195,806.93939 c -0.7001,-32.73159 -27.3067,-58.98687 -60.3899,-58.98687 -33.2583,0 -60.39,26.95541 -60.39,60.38715 0,18.20363 8.052,34.30692 20.6551,45.33409 -43.7608,-8.40171 -76.669,-46.55934 -76.669,-92.5936 0,-52.16049 42.1855,-94.34397 94.3484,-94.34397 52.163,0 94.3484,42.18348 94.3484,94.34397 0,16.62834 -4.3761,32.20647 -11.903,45.85923 z"
   id="path1" />
</svg>
