<?xml version="1.0" encoding="UTF-8" standalone="no"?>
<svg
   version="1.1"
   viewBox="0 0 400 400"
   xmlns="http://www.w3.org/2000/svg"
   xmlns:svg="http://www.w3.org/2000/svg">
  <defs>
    <style
       id="style1">
      path {
        fill: #000000;
      }
      @media (prefers-color-scheme: dark) {
        path {
          fill: #FFFFFF;
        }
      }
      @media (prefers-color-scheme: light) {
        path {
          fill: #000000;
        }
      }
    </style>
  </defs>
  <g
     transform="matrix(1.1300767,0,0,1.1309564,-30.886953,-15.513367)">
    <path
       d="M 381.29,260.3 C 378.6619,247.1 358.634,209 318.215,175.2 310.6931,168.9 304.168,163.8 298.64,159.7 306.615,121.4 264.656,75.4 223.512,97 193.968,66.3 161.162,54 130.893,54.4 50.78,55.6 -11.027,147.7 55.584,235.6 c 1.0875,1.4 2.175,2.8 3.1719,4.1 4.2594,5.7 7.1594,10.8 9.6063,19.6 l 19.756,71.7 h -6.9781 c -6.4344,0 -11.781,5.7 -11.781,13 h 26.553 l 44.678,23.4 c 2.8094,-6.5 0,-14.1 -5.5281,-17.1 l -11.781,-6.1 h 33.622 c 0,-7.1 -5.1656,-13 -11.781,-13 h -30.631 c -5.3469,0 -10.15,-3.9 -11.6,-9.4 l -15.678,-57 c -3.8969,-14.9 4.9844,-24.8 13.503,-25.9 7.6125,-1 11.6,4.5 15.134,17.7 l 13.866,50.5 h -6.9781 c -6.4344,0 -11.781,5.7 -11.781,13 h 26.553 l 44.678,23.4 c 2.8094,-6.5 0,-14.1 -5.5281,-17.1 l -11.781,-6.1 h 24.741 c 2.5375,4.7 5.5281,9 9.2438,13.2 22.928,25.3 60.538,25.3 83.466,0 22.928,-25.3 22.928,-66.8 0,-92.1 -22.928,-25.3 -60.538,-25.3 -83.466,0 -22.928,25.3 -21.025,43.6 -14.409,66 h -27.913 c -5.3469,0 -10.15,-3.9 -11.6,-9.4 l -23.109,-84.1 3.8969,-2.4 c 55.009,-25.5 113.83,20 154.7,-23.8 h 0.18125 c 4.9844,-5.3 10.15,-10.6 25.103,0 16.222,11.2 51.656,40.3 67.878,90 0,0 9.7875,-3.9 7.1594,-17.1 l 0.18125,-0.2 z M 268.01,150.1 c 0,-6.9 -5.1656,-12.2 -11.419,-12.2 -6.2534,0 -11.419,5.5 -11.419,12.6 0,7.1 1.6313,7.1 3.8969,9.4 -8.1563,-1.8 -14.409,-9.6 -14.409,-19.3 0,-9.7 7.975,-19.6 17.763,-19.6 9.7875,0 17.763,8.8 17.763,19.6 0,10.8 -0.90625,6.7 -2.3562,9.4 z"
       id="path1" />
  </g>
</svg>
