<?xml version="1.0" encoding="UTF-8" standalone="no"?>
<svg
   version="1.1"
   viewBox="0 0 2200 2200"
   xmlns="http://www.w3.org/2000/svg"
   xmlns:svg="http://www.w3.org/2000/svg">
 <defs>
  <style>
    path {
      fill: #000000;
    }
  </style>
</defs>
  <path
     d="M 2197.0755,1377.9717 C 2180.1191,1303.612 2057.1337,1089.3169 1805.6469,899.1274 1759.6806,864.1947 1718.2088,835.1862 1683.683,812.102 1733.9395,596.98972 1472.6466,337.54761 1217.6869,459.71012 1034.6389,287.49776 830.54849,217.22368 642.80169,220.08367 145.75277,227.02936 -237.7083,744.89216 174.76262,1239.0579 c 0.20429,0.2043 0.40858,0.4085 0.81717,0.8171 6.33314,7.5585 12.87057,15.1171 19.408,22.6756 26.7626,32.0728 44.53624,60.4685 59.65404,110.5183 l 122.98539,403.0545 h -43.51476 c -40.04176,0 -72.7289,32.4814 -72.7289,72.7255 H 426.45365 L 703.8858,1980 c 17.16075,-36.3627 1.63436,-79.6712 -34.5258,-96.6269 l -72.7289,-34.3199 h 209.19774 c 0,-40.0398 -32.48286,-72.7255 -72.7289,-72.7255 H 543.51449 c -33.09574,0 -62.51417,-21.6542 -72.11602,-53.3184 l -97.44855,-320.1147 c -24.31107,-84.1655 31.46138,-139.1182 83.9651,-145.6553 47.80496,-5.9244 71.91173,24.9227 94.38414,99.6911 l 86.62094,283.9563 h -43.51477 c -40.04175,0 -72.7289,32.4813 -72.7289,72.7255 h 165.07009 l 277.43215,131.151 c 17.16075,-36.3627 1.63436,-79.6712 -34.52579,-96.6268 l -72.7289,-34.3199 h 153.42532 c 15.5264,26.3528 34.5258,51.2755 57.2025,73.7469 143.0062,142.9996 375.2893,142.9996 518.2955,0 143.0063,-142.9995 143.0063,-375.2718 0,-518.2713 -143.0062,-142.9996 -375.2893,-142.9996 -518.2955,0 -100.513,100.5082 -130.54432,245.1421 -89.68538,371.7989 H 805.21595 c -33.09573,0 -62.51416,-21.6543 -72.11601,-53.3185 l -143.82345,-472.7157 24.51536,-13.0743 c 341.37638,-143.2038 706.45095,112.5611 960.59355,-133.1939 0.6128,-0.6128 1.2257,-1.2257 1.6343,-1.6342 31.4614,-28.6 62.9228,-57.8127 155.8768,0.4085 100.1044,62.7156 320.947,226.3479 421.0514,506.2185 0.2043,0 60.8798,-21.6541 44.1276,-95.8097 z M 1494.7104,757.9664 c -0.8171,-38.20131 -31.8699,-68.84408 -70.4816,-68.84408 -38.816,0 -70.4817,31.4599 -70.4817,70.47836 0,21.24562 9.3976,40.03992 24.1068,52.90982 -51.0737,-9.8057 -89.4811,-54.33982 -89.4811,-108.0668 0,-60.87696 49.235,-110.10968 110.1149,-110.10968 60.8798,0 110.1148,49.23272 110.1148,110.10968 0,19.40709 -5.1074,37.58846 -13.8921,53.5227 z"
     id="path1" />
</svg>
