<?xml version="1.0" encoding="UTF-8" standalone="no"?>
<svg
   version="1.1"
   viewBox="0 0 2200 1605"
   xmlns="http://www.w3.org/2000/svg"
   xmlns:svg="http://www.w3.org/2000/svg">
 <defs>
  <style>
    path {
      fill: #000000;
    }
    @media (prefers-color-scheme: dark) {
      path {
        fill: #FFFFFF;
      }
    }
    @media (prefers-color-scheme: light) {
      path {
        fill: #000000;
      }
    }
  </style>
</defs>
<g
   transform="matrix(1.1748371,0,0,1.1746712,-54.864894,-26.148361)">
  <path
   d="M 1329.3,626.2 C 1298.7,528.9 1195,474.9 1097.7,505.5 1000.4,536.1 946.3,639.8 977,737.1 c 0.1,0.4 0.3,0.9 0.4,1.3 h -87.6 c -16.7,0 -31.5,-10.9 -36.3,-26.9 l -72.6,-238.2 12.4,-6.6 c 172,-72.2 356,56.7 484.1,-67.1 0.3,-0.3 0.6,-0.6 0.8,-0.8 15.9,-14.4 31.7,-29.1 78.6,0.2 50.4,31.6 161.7,114.1 212.2,255.1 0,0 30.6,-10.9 22.1,-48.3 -8.5,-37.5 -70.5,-145.5 -197.3,-241.3 -23.2,-17.6 -44.1,-32.2 -61.5,-43.9 C 1357.6,212.2 1226,81.4 1097.5,143 1005.3,56.3 902.5,20.9 807.9,22.3 557.4,25.8 364.2,286.8 572,535.8 c 0.1,0.1 0.2,0.2 0.4,0.4 3.2,3.8 6.5,7.6 9.8,11.4 13.5,16.2 22.4,30.5 30.1,55.7 l 61.9,203.2 h -21.9 c -20.2,0 -36.6,16.4 -36.6,36.6 h 83.2 l 139.8,66.1 c 8.6,-18.3 0.8,-40.1 -17.4,-48.7 L 784.6,843.2 H 890 c 0,-20.2 -16.4,-36.6 -36.6,-36.6 h -95.5 c -16.7,0 -31.5,-10.9 -36.3,-26.9 L 672.5,618.4 c -12.2,-42.4 15.9,-70.1 42.3,-73.4 24.1,-3 36.2,12.6 47.6,50.2 L 806,738.3 h -21.9 c -20.2,0 -36.6,16.4 -36.6,36.6 h 83.2 L 970.5,841 c 8.6,-18.3 0.8,-40.1 -17.4,-48.7 L 916.4,775 h 77.4 c 42.5,72.7 131.1,109.2 214.8,82.8 97.3,-30.6 151.3,-134.3 120.7,-231.6 z M 1188.7,210.9 c 30.7,0 55.5,24.8 55.5,55.5 0,9.8 -2.6,19 -7,27 -0.4,-19.2 -16.1,-34.7 -35.5,-34.7 -19.6,0 -35.5,15.9 -35.5,35.5 0,10.7 4.7,20.2 12.1,26.7 -25.7,-4.9 -45.1,-27.4 -45.1,-54.5 0,-30.6 24.8,-55.5 55.5,-55.5 z"
   id="path1" class="cls-1" />
  <polygon
   points="448.1,1388.6 281.9,1142.6 437.9,968.6 314.3,968.6 153.5,1150.4 153.5,968.6 46.7,968.6 46.7,1388.6 153.5,1388.6 153.5,1285.4 209.3,1223.6 320.3,1388.6 "
   id="polygon1" class="cls-1" />
  <rect
   x="494.89999"
   y="968.59998"
   width="106.8"
   height="420"
   id="rect1" class="cls-1" />
  <polygon
   points="1157.9,1388.6 1296.5,968.6 1187.3,968.6 1106.3,1277.6 1024.1,968.6 919.7,968.6 839.3,1277.6 757.1,968.6 643.1,968.6 780.5,1388.6 890.9,1388.6 970.1,1098.2 1048.1,1388.6 "
   id="polygon2" class="cls-1" />
  <rect
   x="1334.3"
   y="968.59998"
   width="106.8"
   height="420"
   id="rect2" class="cls-1" />
  <polygon
   points="1791.5,1388.6 1919.3,1388.6 1768.7,1169 1907.3,968.6 1781.9,968.6 1700.9,1091 1619.9,968.6 1495.7,968.6 1636.1,1173.8 1486.1,1388.6 1610.3,1388.6 1700.9,1254.8 "
   id="polygon3" class="cls-1" />
</g>
</svg>
