<?xml version="1.0" encoding="UTF-8"?>
<svg xmlns="http://www.w3.org/2000/svg" xmlns:svg="http://www.w3.org/2000/svg" xmlns:rdf="http://www.w3.org/1999/02/22-rdf-syntax-ns#" xmlns:dc="http://purl.org/dc/elements/1.1/" xmlns:cc="http://creativecommons.org/ns#" version="1.1" viewBox="0 0 1974.3 1435.9">
  <defs>
    <style>
      .cls-1 {
        fill: #fff;
      }
    </style>
  </defs>
  <!-- Generator: Adobe Illustrator 28.7.1, SVG Export Plug-In . SVG Version: 1.2.0 Build 142)  -->
  <g>
    <g id="Layer_1">
      <g>
        <path class="cls-1" d="M1329.3,626.2c-30.6-97.3-134.3-151.3-231.6-120.7s-151.4,134.3-120.7,231.6c0,.4.3.9.4,1.3h-87.6c-16.7,0-31.5-10.9-36.3-26.9l-72.6-238.2,12.4-6.6c172-72.2,356,56.7,484.1-67.1.3-.3.6-.6.8-.8,15.9-14.4,31.7-29.1,78.6.2,50.4,31.6,161.7,114.1,212.2,255.1,0,0,30.6-10.9,22.1-48.3-8.5-37.5-70.5-145.5-197.3-241.3-23.2-17.6-44.1-32.2-61.5-43.9,25.3-108.4-106.3-239.2-234.8-177.6-92.2-86.7-195-122.1-289.6-120.7-250.5,3.5-443.7,264.5-235.9,513.5l.4.4c3.2,3.8,6.5,7.6,9.8,11.4,13.5,16.2,22.4,30.5,30.1,55.7l61.9,203.2h-21.9c-20.2,0-36.6,16.4-36.6,36.6h83.2l139.8,66.1c8.6-18.3.8-40.1-17.4-48.7l-36.7-17.3h105.4c0-20.2-16.4-36.6-36.6-36.6h-95.5c-16.7,0-31.5-10.9-36.3-26.9l-49.1-161.3c-12.2-42.4,15.9-70.1,42.3-73.4,24.1-3,36.2,12.6,47.6,50.2l43.6,143.1h-21.9c-20.2,0-36.6,16.4-36.6,36.6h83.2l139.8,66.1c8.6-18.3.8-40.1-17.4-48.7l-36.7-17.3h77.4c42.5,72.7,131.1,109.2,214.8,82.8,97.3-30.6,151.3-134.3,120.7-231.6ZM1188.7,210.9c30.7,0,55.5,24.8,55.5,55.5s-2.6,19-7,27c-.4-19.2-16.1-34.7-35.5-34.7s-35.5,15.9-35.5,35.5,4.7,20.2,12.1,26.7c-25.7-4.9-45.1-27.4-45.1-54.5s24.8-55.5,55.5-55.5Z"/>
        <polygon class="cls-1" points="437.9 968.6 314.3 968.6 153.5 1150.4 153.5 968.6 46.7 968.6 46.7 1388.6 153.5 1388.6 153.5 1285.4 209.3 1223.6 320.3 1388.6 448.1 1388.6 281.9 1142.6 437.9 968.6"/>
        <rect class="cls-1" x="494.9" y="968.6" width="106.8" height="420"/>
        <polygon class="cls-1" points="1106.3 1277.6 1024.1 968.6 919.7 968.6 839.3 1277.6 757.1 968.6 643.1 968.6 780.5 1388.6 890.9 1388.6 970.1 1098.2 1048.1 1388.6 1157.9 1388.6 1296.5 968.6 1187.3 968.6 1106.3 1277.6"/>
        <rect class="cls-1" x="1334.3" y="968.6" width="106.8" height="420"/>
        <polygon class="cls-1" points="1768.7 1169 1907.3 968.6 1781.9 968.6 1700.9 1091 1619.9 968.6 1495.7 968.6 1636.1 1173.8 1486.1 1388.6 1610.3 1388.6 1700.9 1254.8 1791.5 1388.6 1919.3 1388.6 1768.7 1169"/>
      </g>
    </g>
  </g>
</svg>