<svg viewBox="0 0 1549.5 494.7" xmlns="http://www.w3.org/2000/svg"><g fill="#231f20"><path d="m818.2 2.2h-60.7l-79 89.3v-89.3h-52.5v206.4h52.5v-50.8l27.4-30.3 54.5 81.1h62.8l-81.7-120.9z"/><path d="m846.2 2.2h52.5v206.3h-52.5z"/><path d="m1146.5 154-40.4-151.8h-51.3l-39.4 151.8-40.4-151.8h-56l67.5 206.4h54.2l38.9-142.7 38.3 142.7h53.9l68.1-206.4h-53.6z"/><path d="m1258.5 2.2h52.5v206.3h-52.5z"/><path d="m1471.9 100.7 68.1-98.5h-61.6l-39.8 60.1-39.8-60.1h-61l69 100.8-73.7 105.6h61l44.5-65.8 44.5 65.8h62.8z"/><path d="m627.7 439.8v-174.6h26.4v72.3h76.3v-72.3h26.4v174.6h-26.4v-78.1h-76.3v78.1z"/><path d="m841.9 442.8c-11.8 0-22.4-2.7-31.7-8s-16.6-12.8-21.9-22.6c-5.3-9.7-8-21.2-8-34.3s2.7-24.6 8-34.3 12.6-17.2 21.9-22.6c9.3-5.3 20-8 31.9-8s22.6 2.7 31.8 8 16.5 12.8 21.7 22.6c5.2 9.7 7.9 21.2 7.9 34.3s-2.7 24.6-8 34.3-12.6 17.3-21.8 22.6-19.8 8-31.8 8zm0-25.2c6.3 0 12.1-1.4 17.5-4.2 5.3-2.8 9.6-7.2 12.8-13.1s4.9-13.3 4.9-22.3-1.6-16.6-4.9-22.4c-3.2-5.8-7.5-10.1-12.7-13-5.2-2.8-11-4.2-17.3-4.2s-12.1 1.4-17.5 4.2c-5.3 2.8-9.6 7.2-12.8 13s-4.9 13.3-4.9 22.4c0 13.6 3.4 23.7 10.3 30.1s15.1 9.6 24.6 9.6z"/><path d="m982.6 439.8c-12.1 0-21.8-3-28.9-8.9-7.2-5.9-10.7-16.4-10.7-31.6v-60.9h-31.2v-22.5h18.5c8.5 0 13.5-4.2 15-12.5l3.7-20h20.4v32.4h48.9v22.5h-48.9v60.4c0 6.5 1.5 11 4.4 13.6s7.9 3.9 15.1 3.9h28.9v23.4h-35.2z"/><path d="m1094.8 442.8c-16.3 0-29.3-3.8-38.9-11.5-9.6-7.6-15.1-17.8-16.5-30.4h27.2c1 5.8 3.9 10.6 8.8 14.2 4.9 3.7 11.4 5.5 19.6 5.5s13.8-1.6 18.1-4.9c4.2-3.2 6.4-7 6.4-11.3 0-6.3-2.5-10.6-7.6-13-5.1-2.3-12.5-4.1-22.3-5.2-8.5-1-16.2-2.9-23.1-5.9-6.9-2.9-12.3-6.9-16.3-12s-6-11.4-6-19.1 4.2-19.5 12.7-26.2c8.5-6.6 20.3-10 35.4-10s26.9 3.4 35.2 10.2 13.1 16.1 14.5 27.9h-25.4c-.7-5-3.2-8.9-7.7-11.8s-10.1-4.4-16.7-4.4-12.2 1.3-16.2 3.9-6 5.9-6 10.1c0 9 9.6 14.5 28.9 16.5 9.1 1 17.3 2.7 24.4 5.1s12.8 6.2 17 11.2c4.2 5.1 6.2 12.2 6.2 21.3.2 7.5-2 14.2-6.4 20.2s-10.5 10.7-18.2 14.2-16.8 5.2-27.1 5.2z"/><path d="m1170.9 494.7v-178.6h22.9l2 19h1.5c3.3-6.2 8.4-11.3 15.1-15.6 6.7-4.2 14.8-6.4 24.1-6.4s18.5 2.5 26.4 7.4c8 4.9 14.3 12.1 19.1 21.7 4.7 9.6 7.1 21.5 7.1 35.8s-2.5 26-7.4 35.7c-4.9 9.6-11.5 16.9-19.8 21.8s-17.6 7.4-27.9 7.4-16.8-1.8-22.9-5.5c-6.2-3.7-10.7-7.8-13.7-12.5v69.8h-26.4zm58.6-77.1c9.3 0 17.1-3.3 23.3-10s9.4-16.6 9.4-29.9-3.1-23.2-9.4-29.7c-6.2-6.5-14-9.7-23.3-9.7s-17.3 3.3-23.6 9.9c-6.2 6.6-9.4 16.5-9.4 29.8s3.1 23 9.4 29.7c6.2 6.7 14.1 10 23.6 10z"/><path d="m1370.7 442.8c-11.8 0-22.4-2.7-31.7-8s-16.6-12.8-21.9-22.6c-5.3-9.7-8-21.2-8-34.3s2.7-24.6 8-34.3 12.6-17.2 21.9-22.6c9.3-5.3 20-8 31.9-8s22.6 2.7 31.8 8 16.5 12.8 21.7 22.6c5.2 9.7 7.9 21.2 7.9 34.3s-2.7 24.6-8 34.3-12.6 17.3-21.8 22.6-19.8 8-31.8 8zm0-25.2c6.3 0 12.1-1.4 17.5-4.2 5.3-2.8 9.6-7.2 12.8-13.1s4.9-13.3 4.9-22.3-1.6-16.6-4.9-22.4c-3.2-5.8-7.5-10.1-12.7-13-5.2-2.8-11-4.2-17.3-4.2s-12.1 1.4-17.5 4.2c-5.3 2.8-9.6 7.2-12.8 13s-4.9 13.3-4.9 22.4c0 13.6 3.4 23.7 10.3 30.1s15.1 9.6 24.6 9.6z"/><path d="m1513.8 439.8c-12.1 0-21.8-3-28.9-8.9-7.2-5.9-10.7-16.4-10.7-31.6v-60.9h-31.2v-22.5h18.5c8.5 0 13.5-4.2 15-12.5l3.7-20h20.4v32.4h48.9v22.5h-48.9v60.4c0 6.5 1.5 11 4.4 13.6s7.9 3.9 15.1 3.9h28.9v23.4h-35.2z"/><path d="m432.7 309.1c-15.7-49.8-68.7-77.4-118.5-61.8-49.8 15.7-77.5 68.7-61.8 118.5 0 .2.2.5.2.7h-44.8c-8.5 0-16.1-5.6-18.6-13.8l-37.2-121.9 6.3-3.4c88-37 182.2 29 247.8-34.3l.4-.4c8.1-7.4 16.2-14.9 40.2.1 25.8 16.2 82.8 58.4 108.6 130.6 0 0 15.7-5.6 11.3-24.7-4.4-19.2-36.1-74.5-101-123.5-11.9-9-22.6-16.5-31.5-22.5 13-55.5-54.4-122.4-120.2-90.9-47-44.4-99.7-62.5-148.1-61.8-128.2 1.8-227.1 135.4-120.7 262.9l.2.2c1.6 1.9 3.3 3.9 5 5.8 6.9 8.3 11.5 15.6 15.4 28.5l31.7 104h-11.2c-10.3 0-18.7 8.4-18.7 18.7h42.6l71.6 33.8c4.4-9.4.4-20.5-8.9-24.9l-18.8-8.9h54c0-10.3-8.4-18.7-18.7-18.7h-48.9c-8.5 0-16.1-5.6-18.6-13.8l-25.1-82.6c-6.2-21.7 8.1-35.9 21.7-37.6 12.3-1.5 18.5 6.4 24.4 25.7l22.3 73.2h-11.2c-10.3 0-18.7 8.4-18.7 18.7h42.6l71.6 33.8c4.4-9.4.4-20.5-8.9-24.9l-18.8-8.9h39.6c21.8 37.2 67.1 55.9 110 42.4 49.8-15.7 77.4-68.7 61.8-118.5zm-72-212.5c15.7 0 28.4 12.7 28.4 28.4s-1.3 9.7-3.6 13.8c-.2-9.8-8.2-17.8-18.2-17.8s-18.2 8.1-18.2 18.2 2.4 10.3 6.2 13.7c-13.2-2.5-23.1-14-23.1-27.9s12.7-28.4 28.4-28.4z"/></g></svg>