<?xml version="1.0" encoding="UTF-8" standalone="no"?>
<svg
   version="1.1"
   viewBox="0 0 2200 325"
   id="svg14"
   sodipodi:docname="horizontal-logo.svg"
   width="2200"
   height="325"
   inkscape:version="1.3.2 (091e20e, 2023-11-25)"
   xmlns:inkscape="http://www.inkscape.org/namespaces/inkscape"
   xmlns:sodipodi="http://sodipodi.sourceforge.net/DTD/sodipodi-0.dtd"
   xmlns="http://www.w3.org/2000/svg"
   xmlns:svg="http://www.w3.org/2000/svg">
  <sodipodi:namedview
     id="namedview14"
     pagecolor="#ffffff"
     bordercolor="#666666"
     borderopacity="1.0"
     inkscape:showpageshadow="2"
     inkscape:pageopacity="0.0"
     inkscape:pagecheckerboard="0"
     inkscape:deskcolor="#d1d1d1"
     inkscape:zoom="0.32772727"
     inkscape:cx="1100"
     inkscape:cy="201.38696"
     inkscape:window-width="2560"
     inkscape:window-height="1387"
     inkscape:window-x="0"
     inkscape:window-y="25"
     inkscape:window-maximized="0"
     inkscape:current-layer="svg14" />
  <defs
     id="defs1">
    <style
       id="style1">
      path {
        fill: #000000;
      }
      @media (prefers-color-scheme: dark) {
        path {
          fill: #FFFFFF;
        }
      }
      @media (prefers-color-scheme: light) {
        path {
          fill: #000000;
        }
      }
    </style>
  </defs>
  <g
     id="g14"
     transform="matrix(1.0397103,0,0,1.0383074,-42.655223,-56.474134)">
    <path
       d="M 431.6,260.3 C 428.7,247.1 406.6,209 362,175.2 353.7,168.9 346.5,163.8 340.4,159.7 349.2,121.4 302.9,75.4 257.5,97 224.9,66.3 188.7,54 155.3,54.4 66.9,55.6 -1.3,147.7 72.2,235.6 v 0 c 1.2,1.4 2.4,2.8 3.5,4.1 4.7,5.7 7.9,10.8 10.6,19.6 l 21.8,71.7 h -7.7 c -7.1,0 -13,5.7 -13,13 h 29.3 l 49.3,23.4 c 3.1,-6.5 0,-14.1 -6.1,-17.1 l -13,-6.1 H 184 c 0,-7.1 -5.7,-13 -13,-13 h -33.8 c -5.9,0 -11.2,-3.9 -12.8,-9.4 l -17.3,-57 c -4.3,-14.9 5.5,-24.8 14.9,-25.9 8.4,-1 12.8,4.5 16.7,17.7 l 15.3,50.5 h -7.7 c -7.1,0 -13,5.7 -13,13 h 29.3 l 49.3,23.4 c 3.1,-6.5 0,-14.1 -6.1,-17.1 l -13,-6.1 h 27.3 c 2.8,4.7 6.1,9 10.2,13.2 25.3,25.3 66.8,25.3 92.1,0 25.3,-25.3 25.3,-66.8 0,-92.1 -25.3,-25.3 -66.8,-25.3 -92.1,0 -25.3,25.3 -23.2,43.6 -15.9,66 h -30.8 c -5.9,0 -11.2,-3.9 -12.8,-9.4 l -25.5,-84.1 4.3,-2.4 c 60.7,-25.5 125.6,20 170.7,-23.8 h 0.2 c 5.5,-5.3 11.2,-10.6 27.7,0 17.9,11.2 57,40.3 74.9,90 0,0 10.8,-3.9 7.9,-17.1 v 0 l 0.2,-0.2 z m -125,-110.2 c 0,-6.9 -5.7,-12.2 -12.6,-12.2 -6.9,0 -12.6,5.5 -12.6,12.6 0,7.1 1.8,7.1 4.3,9.4 -9,-1.8 -15.9,-9.6 -15.9,-19.3 0,-9.7 8.8,-19.6 19.6,-19.6 10.8,0 19.6,8.8 19.6,19.6 0,10.8 -1,6.7 -2.6,9.4 z"
       id="path1" />
    <g
       id="g13">
      <path
         d="m 572.6,219.4 -20.2,21.8 v 54.2 H 513.3 V 105.9 h 39.1 v 85.9 l 17.1,-23.6 48.3,-62.3 h 47.9 l -67.4,84.3 69.4,105.3 h -46.6 l -48.7,-76 h 0.2 z"
         id="path2" />
      <path
         d="m 679.9,118.3 c 0,-5.7 2,-10.2 5.7,-14 3.7,-3.7 8.8,-5.5 15.5,-5.5 6.7,0 11.6,1.8 15.3,5.5 3.7,3.7 5.7,8.3 5.7,14 0,5.7 -2,10.4 -5.7,14.1 -3.9,3.7 -9,5.5 -15.3,5.5 -6.3,0 -11.4,-1.8 -15.3,-5.5 -3.9,-3.7 -5.7,-8.3 -5.7,-14.1 z m 39.9,177.2 H 682.1 V 154.6 h 37.7 z"
         id="path3" />
      <path
         d="m 873.2,244.4 18.5,-89.8 H 928 l -36,140.9 h -31.4 l -26.7,-88.6 -26.7,88.6 h -31.4 l -36,-140.9 h 36.3 l 18.3,89.6 25.7,-89.6 h 27.1 l 25.7,89.8 h 0.2 z"
         id="path4" />
      <path
         d="m 946.5,118.3 c 0,-5.7 2,-10.2 5.7,-14 3.7,-3.7 8.8,-5.5 15.5,-5.5 6.7,0 11.6,1.8 15.3,5.5 3.7,3.7 5.7,8.3 5.7,14 0,5.7 -2,10.4 -5.7,14.1 -3.9,3.7 -9,5.5 -15.3,5.5 -6.3,0 -11.4,-1.8 -15.3,-5.5 -3.9,-3.7 -5.7,-8.3 -5.7,-14.1 z m 39.9,177.2 H 948.7 V 154.6 h 37.7 z"
         id="path5" />
      <path
         d="m 1071.1,196.7 23.8,-42 h 40.3 l -40.1,69 41.8,71.9 h -40.3 l -25.1,-44.2 -25,44.2 H 1006 l 41.9,-71.9 -39.9,-69 h 40.3 l 23.2,42 z"
         id="path6" />
      <path
         d="m 1376.2,295.5 h -39.1 v -81.1 h -76.2 v 81.1 h -39.1 V 105.9 h 39.1 v 76.8 h 76.2 v -76.8 h 39.1 z"
         id="path7" />
      <path
         d="m 1402,223.8 c 0,-14 2.8,-26.5 8.1,-37.3 5.3,-11 13.2,-19.5 23.2,-25.3 10,-5.8 21.8,-9 35.2,-9 19.1,0 34.6,5.9 46.6,17.5 12,11.6 18.7,27.5 20,47.4 v 9.6 c 0.2,21.6 -5.7,38.9 -17.9,52.1 -12,13 -28.3,19.6 -48.5,19.6 -20.2,0 -36.5,-6.5 -48.5,-19.5 -12.2,-13 -18.1,-30.7 -18.1,-53 v -2 z m 37.7,2.7 c 0,13.4 2.6,23.6 7.5,30.7 5.1,7.1 12.2,10.6 21.6,10.6 9.4,0 16.3,-3.5 21.4,-10.4 5.1,-7.1 7.7,-18.3 7.7,-33.6 0,-15.3 -2.6,-23.4 -7.7,-30.5 -5.1,-7.3 -12.4,-10.8 -21.6,-10.8 -9.2,0 -16.3,3.5 -21.4,10.8 -5.1,7.3 -7.5,18.3 -7.5,33.4 z"
         id="path8" />
      <path
         d="m 1603.6,120 v 34.6 h 24.2 v 27.5 h -24.2 v 70.3 c 0,5.3 1,8.8 2.9,11.2 2,2.2 5.9,3.3 11.4,3.3 5.5,0 7.9,-0.4 11,-1 v 28.5 c -7.5,2.2 -14.9,3.3 -22.8,3.3 -26.3,0 -39.9,-13.4 -40.3,-39.9 V 182 h -20.6 v -27.5 h 20.6 v -34.6 h 37.7 z"
         id="path9" />
      <path
         d="m 1725,256.6 c 0,-4.5 -2.4,-8.3 -6.9,-10.8 -4.5,-2.5 -11.8,-5.1 -22,-7.1 -33.6,-7.1 -50.3,-21.2 -50.3,-42.6 0,-21.4 5.1,-23 15.5,-31.2 10.4,-8.4 24,-12.6 40.7,-12.6 16.7,0 32.2,4.1 42.8,12.6 10.8,8.4 16.1,19.5 16.1,32.8 h -37.5 c 0,-5.3 -1.8,-9.8 -5.3,-13.4 -3.5,-3.6 -8.8,-5.3 -16.3,-5.3 -7.5,0 -11.2,1.4 -14.7,4.3 -3.5,2.9 -5.3,6.5 -5.3,11 0,4.5 2,7.5 5.9,10 3.9,2.6 10.6,4.7 20,6.7 9.4,2 17.3,3.9 23.8,6.3 19.8,7.3 29.9,19.8 29.9,37.9 0,18.1 -5.5,23.2 -16.5,31.2 -11,7.9 -25.3,12 -42.6,12 -17.3,0 -22.2,-2.2 -31.4,-6.3 -9.2,-4.1 -16.3,-10 -21.6,-17.3 -5.3,-7.3 -7.9,-15.3 -7.9,-23.8 h 35.8 c 0.4,6.7 2.8,11.8 7.5,15.3 4.5,3.5 10.8,5.3 18.5,5.3 7.7,0 12.6,-1.4 16.3,-4.1 3.7,-2.8 5.5,-6.3 5.5,-10.8 l 0.2,-0.2 z"
         id="path10" />
      <path
         d="m 1912.6,226.3 c 0,21.6 -4.9,39.1 -14.7,52.1 -9.8,13 -23.2,19.6 -39.9,19.6 -16.7,0 -25.7,-4.9 -34.6,-14.9 v 66.4 h -37.5 V 154.4 h 35 l 1.4,13.8 c 9,-11 21,-16.3 35.8,-16.3 14.8,0 30.8,6.5 40.5,19.3 9.6,12.8 14.5,30.5 14.5,53 v 2 l -0.4,0.2 z m -37.7,-2.7 c 0,-13.2 -2.4,-23.2 -6.9,-30.3 -4.7,-7.1 -11.4,-10.6 -20.2,-10.6 -8.8,0 -19.8,4.5 -24.4,13.6 v 57.8 c 4.5,9.2 12.8,14 24.6,14 17.9,0 26.9,-14.7 26.9,-44.2 v -0.2 z"
         id="path11" />
      <path
         d="m 1930.1,223.8 c 0,-14 2.8,-26.5 8.1,-37.3 5.3,-11 13.2,-19.5 23.2,-25.3 10,-5.8 21.8,-9 35.2,-9 19.1,0 34.6,5.9 46.6,17.5 12,11.6 18.7,27.5 20,47.4 v 9.6 c 0.2,21.6 -5.7,38.9 -17.9,52.1 -12,13 -28.3,19.6 -48.5,19.6 -20.2,0 -36.5,-6.5 -48.5,-19.5 -12.2,-13 -18.1,-30.7 -18.1,-53 v -2 z m 37.5,2.7 c 0,13.4 2.6,23.6 7.5,30.7 5.1,7.1 12.2,10.6 21.6,10.6 9.4,0 16.3,-3.5 21.4,-10.4 5.1,-7.1 7.7,-18.3 7.7,-33.6 0,-15.3 -2.6,-23.4 -7.7,-30.5 -5.1,-7.3 -12.4,-10.8 -21.6,-10.8 -9.2,0 -16.3,3.5 -21.4,10.8 -5.1,7.3 -7.5,18.3 -7.5,33.4 z"
         id="path12" />
      <path
         d="m 2131.7,120 v 34.6 h 24.2 v 27.5 h -24.2 v 70.3 c 0,5.3 1,8.8 2.9,11.2 2,2.2 5.9,3.3 11.4,3.3 5.5,0 7.9,-0.4 11,-1 v 28.5 c -7.5,2.2 -14.9,3.3 -22.8,3.3 -26.3,0 -39.9,-13.4 -40.3,-39.9 V 182 h -20.6 v -27.5 h 20.6 v -34.6 h 37.7 z"
         id="path13" />
    </g>
  </g>
</svg>
